<svg xmlns="http://www.w3.org/2000/svg" xmlns:xlink="http://www.w3.org/1999/xlink" viewBox="0 0 1693.8 1468.9"><defs><style>.cls-1{fill:none;}.cls-2{fill:#ec9500;}.cls-3{clip-path:url(#clip-path);}.cls-4{fill:url(#linear-gradient);}.cls-5{fill:url(#linear-gradient-2);}.cls-6{clip-path:url(#clip-path-2);}.cls-7{fill:url(#linear-gradient-3);}.cls-8{fill:url(#linear-gradient-4);}.cls-9{clip-path:url(#clip-path-3);}.cls-10{fill:url(#linear-gradient-5);}.cls-11{fill:url(#linear-gradient-6);}.cls-12{clip-path:url(#clip-path-4);}.cls-13{fill:url(#linear-gradient-7);}.cls-14{fill:url(#linear-gradient-8);}.cls-15{fill:url(#linear-gradient-9);}.cls-16{fill:url(#linear-gradient-10);}.cls-17{clip-path:url(#clip-path-5);}.cls-18{fill:url(#linear-gradient-11);}.cls-19{fill:url(#linear-gradient-12);}</style><clipPath id="clip-path" transform="translate(148.66 102.63)"><path class="cls-1" d="M949.56,4.22c388.54,257.44,133,966.58-180.67,1071.69C446.34,1184,334,1210.83,109.88,1366.27c133-254.45,311.1-404.72,633.91-624.56C1068.17,520.8,1073.19,191.69,949.56,4.22Z"/></clipPath><linearGradient id="linear-gradient" x1="109.88" y1="685.24" x2="1361.93" y2="685.24" gradientUnits="userSpaceOnUse"><stop offset="0" stop-color="#ec9500"/><stop offset="0.71" stop-color="#db2d49"/></linearGradient><linearGradient id="linear-gradient-2" x1="-48.07" y1="683.27" x2="1057.31" y2="683.27" gradientUnits="userSpaceOnUse"><stop offset="0" stop-color="#f7c319"/><stop offset="1" stop-color="#f7ad19"/></linearGradient><clipPath id="clip-path-2" transform="translate(148.66 102.63)"><path class="cls-1" d="M887.62,98.66C863.72,50.59,797.57-5.42,710,.42c57.15,51.22,62.73,97.86,49.34,181.51C809.29,177.73,879.22,133.07,887.62,98.66Z"/></clipPath><linearGradient id="linear-gradient-3" x1="709.82" y1="108.1" x2="973.37" y2="108.1" xlink:href="#linear-gradient"/><linearGradient id="linear-gradient-4" x1="655.76" y1="78.64" x2="813.58" y2="78.64" xlink:href="#linear-gradient-2"/><clipPath id="clip-path-3" transform="translate(148.66 102.63)"><path class="cls-1" d="M1198.5,630.27C1146.16,756.71,1151.35,804.53,1026,988c316.51-194.65,228.08-429.81,474-433.48C1500,554.5,1282.69,426.92,1198.5,630.27Z"/></clipPath><linearGradient id="linear-gradient-5" x1="998" y1="784.26" x2="1545.14" y2="784.26" gradientUnits="userSpaceOnUse"><stop offset="0" stop-color="#ec9500"/><stop offset="0.58" stop-color="#db2d49"/></linearGradient><linearGradient id="linear-gradient-6" x1="1026.04" y1="687.01" x2="1500" y2="687.01" gradientUnits="userSpaceOnUse"><stop offset="0" stop-color="#f7c319"/><stop offset="0.61" stop-color="#f7ad19"/></linearGradient><clipPath id="clip-path-4" transform="translate(148.66 102.63)"><path class="cls-1" d="M391.25,601.63C242.22,643.93,130.92,725.81.58,881.89c-8.8-182.4,83.41-358,190.09-487.48,77-93.38,188.08-199.34,398.63-135.82,126.78,38.25,300.19-61.07,328-93.5C865,268.74,718.5,338.29,718.5,338.29,774.17,493,698.78,616,607.58,695.67c-154.39,134.82-330.81,174.92-545.78,627-20.26-399.33,140.61-537.28,337-674.06C420.05,633.79,445.18,586.32,391.25,601.63Z"/></clipPath><linearGradient id="linear-gradient-7" x1="3.19" y1="961.24" x2="447.76" y2="961.24" xlink:href="#linear-gradient-2"/><linearGradient id="linear-gradient-8" x1="0.58" y1="736.08" x2="418.47" y2="736.08" xlink:href="#linear-gradient"/><linearGradient id="linear-gradient-9" x1="-148.66" y1="471.97" x2="919.79" y2="471.97" xlink:href="#linear-gradient-2"/><linearGradient id="linear-gradient-10" x1="61.8" y1="743.86" x2="917.31" y2="743.86" gradientUnits="userSpaceOnUse"><stop offset="0" stop-color="#ec9500"/><stop offset="0.52" stop-color="#db2d49"/></linearGradient><clipPath id="clip-path-5" transform="translate(148.66 102.63)"><path class="cls-1" d="M917.3,165.09c-27.81,32.44-201.22,131.75-328,93.51C378.74,195.08,267.64,301,190.68,394.41,84,523.84-8.23,699.48.59,881.89,130.93,725.83,242.21,643.94,391.26,601.63c53.91-15.31,28.77,32.15,7.56,46.94C202.41,785.36,41.53,923.3,61.81,1322.65c215-452.06,391.39-492.16,545.76-627C698.78,616,774.17,493,718.51,338.28,718.51,338.28,865,268.74,917.3,165.09Zm-458,260.16c-29.07,28.32-34,55.19-59.24,63.1-19.95,6.24-36.55-16.44-25.43-34.13,52.13-82.9,144.62-74.06,144.62-74.06S481.57,403.58,459.32,425.25Z"/></clipPath><linearGradient id="linear-gradient-11" x1="370.22" y1="435.66" x2="519.27" y2="435.66" xlink:href="#linear-gradient-2"/><linearGradient id="linear-gradient-12" x1="361.77" y1="421.32" x2="519.27" y2="421.32" xlink:href="#linear-gradient-10"/></defs><g id="Layer_2" data-name="Layer 2"><g id="Layer_23" data-name="Layer 23"><path class="cls-2" d="M887.62,98.66C863.72,50.59,797.57-5.42,710,.42c57.15,51.22,62.73,97.86,49.34,181.51C809.29,177.73,879.22,133.07,887.62,98.66Z" transform="translate(148.66 102.63)"/><path class="cls-2" d="M917.3,165.09c-27.81,32.44-201.22,131.75-328,93.51C378.74,195.08,267.64,301,190.68,394.41,84,523.84-8.23,699.48.59,881.89,130.93,725.83,242.21,643.94,391.26,601.63c53.91-15.31,28.77,32.15,7.56,46.94C202.41,785.36,41.53,923.3,61.81,1322.65c215-452.06,391.39-492.16,545.76-627C698.78,616,774.17,493,718.51,338.28,718.51,338.28,865,268.74,917.3,165.09Zm-458,260.16c-29.07,28.32-34,55.19-59.24,63.1-19.95,6.24-36.55-16.44-25.43-34.13,52.13-82.9,144.62-74.06,144.62-74.06S481.57,403.58,459.32,425.25Z" transform="translate(148.66 102.63)"/><path class="cls-2" d="M949.57,4.22c388.54,257.45,133,966.58-180.67,1071.7C446.34,1184,334,1210.83,109.89,1366.27c133-254.44,311.1-404.71,633.9-624.55C1068.18,520.8,1073.19,191.69,949.57,4.22Z" transform="translate(148.66 102.63)"/><path class="cls-2" d="M1198.5,630.27C1146.16,756.71,1151.35,804.53,1026,988c316.51-194.65,228.08-429.81,474-433.48C1500,554.5,1282.69,426.92,1198.5,630.27Z" transform="translate(148.66 102.63)"/><g class="cls-3"><path class="cls-4" d="M109.88,1366.27S258.69,1175,720.47,1006.63C900.83,940.89,1050.72,735.05,1084.06,535c33.28-199.67,18.67-375-134.5-530.78l412.37,31.92S1150.26,1198.93,1146.1,1205.67,109.88,1366.27,109.88,1366.27Z" transform="translate(148.66 102.63)"/><path class="cls-5" d="M109.88,1363.33S244.34,1126.76,699,848.69c474.56-290.23,386.6-729.13,249.55-845.48L-48.07,1301.05Z" transform="translate(148.66 102.63)"/></g><g class="cls-6"><path class="cls-7" d="M709.82-2.44S843.1,28.72,858.5,103.78c-9.34,25.81-37.37,41.82-108,64.72l68.9,150.33L964.48,155l8.89-257.64Z" transform="translate(148.66 102.63)"/><path class="cls-8" d="M675.59-13.38s126.63,47.45,138,127.84c-79.49,54.45-157.82,56.19-157.82,56.19Z" transform="translate(148.66 102.63)"/></g><g class="cls-9"><path class="cls-10" d="M998,1016.3S1198.53,867,1271.42,668.72c56.95-154.93,273.72-110.64,273.72-110.64l-81.27,426.83Z" transform="translate(148.66 102.63)"/><path class="cls-11" d="M1026,988s160.22-590.47,189.12-596.22C1427.2,349.54,1500,554.5,1500,554.5s-147-53.94-223.29,19S1173.62,855.23,1026,988Z" transform="translate(148.66 102.63)"/></g><g class="cls-12"><path class="cls-13" d="M61.8,1322.64c10.6-204.48,86.94-493.78,353.05-643.75,0,0,72.94-56.43,1.63-79.09L21.16,919.42S-39.39,1327.79,61.8,1322.64Z" transform="translate(148.66 102.63)"/><path class="cls-14" d="M.58,881.89C109.51,699.16,259.09,527.35,418.47,600.55l-181,121.5S54.2,929.12.58,881.89Z" transform="translate(148.66 102.63)"/><path class="cls-15" d="M.58,881.89C60.32,717.55,152.65,559.36,229.7,463.14c129.69-162,253.66-198.94,380-163.25,84.22,23.8,243.13-71.8,310.06-134.8C696.7,148.1,241.6,61.24,241.6,61.24L-148.66,781S-43,893.17.58,881.89Z" transform="translate(148.66 102.63)"/><path class="cls-16" d="M61.8,1322.64S183.73,907.49,494.63,712.22c188.9-118.64,215.22-295.16,192-387.09,80.56-29.07,162.24-66.71,230.73-160L854.74,601.78Z" transform="translate(148.66 102.63)"/></g><g class="cls-17"><path class="cls-18" d="M519.27,380.16S334.79,428.41,376.3,481c15.71,19.9,74.74,9.14,87.26-19.88C483.81,414.18,519.27,380.16,519.27,380.16Z" transform="translate(148.66 102.63)"/><path class="cls-19" d="M376.3,481s42.73-60.48,143-100.84c-78.85-45.72-149.54,1.7-156.71,50.42C357.76,463.21,376.3,481,376.3,481Z" transform="translate(148.66 102.63)"/></g></g></g></svg>